<svg xmlns="http://www.w3.org/2000/svg" xmlns:xlink="http://www.w3.org/1999/xlink" viewBox="0 0 552.48 482"><defs><style>.cls-1{fill:#4d4d4d;}.cls-2{fill:#1a1a1a;}.cls-3{fill:#666;}.cls-4{fill:none;}.cls-5{fill:#333;}.cls-6{fill:gray;}.cls-7{fill:#fcb017;}.cls-8{fill:#f8880e;}.cls-9{fill:#ffdf3f;}.cls-10{fill:#fcbe21;}.cls-11{fill:#4699d3;}.cls-12{fill:#63dbf7;}.cls-13{fill:#f8ada3;}.cls-14{fill:#f8bdab;stroke:#fff;stroke-miterlimit:10;stroke-width:3px;}.cls-15{fill:url(#linear-gradient);}.cls-16{fill:#96cff0;}.cls-17{fill:#999;}</style><linearGradient id="linear-gradient" x1="288.23" y1="596.86" x2="224.23" y2="596.86" gradientTransform="translate(920.44 -205.73) rotate(90)" gradientUnits="userSpaceOnUse"><stop offset="0" stop-color="#f8ada3"/><stop offset="0.05" stop-color="#f7a097" stop-opacity="0.91"/><stop offset="0.2" stop-color="#f47e79" stop-opacity="0.67"/><stop offset="0.35" stop-color="#f2615f" stop-opacity="0.47"/><stop offset="0.49" stop-color="#f0494a" stop-opacity="0.3"/><stop offset="0.63" stop-color="#ef3739" stop-opacity="0.17"/><stop offset="0.76" stop-color="#ee2a2e" stop-opacity="0.08"/><stop offset="0.89" stop-color="#ed2226" stop-opacity="0.02"/><stop offset="1" stop-color="#ed1f24" stop-opacity="0"/></linearGradient></defs><g id="Layer_3" data-name="Layer 3"><path class="cls-1" d="M200.21,289.87c-17,9-30.91-7.76-29-25,2-18,12.11-29.26,27-39C199,225.37,200.59,289.67,200.21,289.87Z"/><path class="cls-1" d="M327.5,151.85c17-9,30.92,7.77,29,25-2,18-13.39,29.28-28.29,39C327.46,216.36,327.12,152.05,327.5,151.85Z"/><path class="cls-2" d="M271.7,119.73c17-9,30.91,7.76,29,25-2,18-12.1,29.26-27,39C272.94,184.22,271.32,119.93,271.7,119.73Z"/><polygon class="cls-3" points="330.21 214.87 200.22 289.87 140.22 257.87 300.21 167.87 330.21 214.87"/><polygon class="cls-2" points="297.94 198.06 312.73 211.18 343.73 162.25 309.21 141.87 275.21 170.87 297.94 198.06"/><path class="cls-4" d="M297.94,204.54c-2.8-48.89,45.54-70.68,55.27-31.92"/><ellipse class="cls-5" cx="327.04" cy="185.6" rx="29.58" ry="20.15" transform="translate(32.19 418.98) rotate(-67.94)"/><ellipse class="cls-2" cx="329.24" cy="185.67" rx="17.05" ry="11.4" transform="translate(33.49 421.06) rotate(-67.94)"/><ellipse class="cls-1" cx="328.48" cy="185.6" rx="9.21" ry="5.52" transform="translate(33.08 420.31) rotate(-67.94)"/><path class="cls-2" d="M269.21,184.87c-6.76-3.15-12.06-8.14-13-11-4.65-14.19-15.58-27.45,12.35-45.17,18.33,10.34,38.32,19.84,56.65,30.17-11.27,3.88-25,23-17,48"/><polygon class="cls-2" points="172.36 269.88 187.15 283 218.15 234.07 183.63 213.69 149.63 242.69 172.36 269.88"/><path class="cls-4" d="M172.36,276.36c-2.8-48.89,45.54-70.68,55.27-31.92"/><ellipse class="cls-5" cx="201.46" cy="257.42" rx="29.58" ry="20.15" transform="translate(-112.78 347.43) rotate(-67.94)"/><ellipse class="cls-2" cx="203.66" cy="257.49" rx="17.05" ry="11.4" transform="translate(-111.47 349.51) rotate(-67.94)"/><ellipse class="cls-1" cx="202.9" cy="257.42" rx="9.21" ry="5.52" transform="translate(-111.89 348.76) rotate(-67.94)"/><path class="cls-2" d="M143.63,256.69c-6.76-3.15-12.06-8.14-13-11C126,231.5,115.05,218.24,143,200.52c18.33,10.34,38.32,19.83,56.65,30.17-11.27,3.88-25,23-17,48"/><path class="cls-6" d="M126.21,259.87c-6.76-3.15-9.06-10.14-10-13-4.65-14.19-1.92-34.29,26-52,18.34,10.33,37.6,20.95,55.93,31.28-20.93,13.72-30.21,33.83-25.93,48.72.73,2.51,2,11,12,16"/><path class="cls-6" d="M345,151a22.7,22.7,0,0,0-16.74.83c-18.66-10.67-38.33-21.33-57-32a20.62,20.62,0,0,1,8-3,15.51,15.51,0,0,1,10,2Z"/><polygon class="cls-6" points="328.21 151.87 198.14 226.15 142.22 194.87 271.21 119.87 328.21 151.87"/><path class="cls-7" d="M329.48,189.87,204.57,261a3.21,3.21,0,0,1-3.9-.46,2.63,2.63,0,0,1-.46-.62c-.93-1.79.1-4.8,3.08-6.44L327,181.76a3.54,3.54,0,0,1,5.2,2v.07A5.6,5.6,0,0,1,329.48,189.87Z"/><path class="cls-8" d="M245.29,235.6l-40.17,22.54a1,1,0,0,1-1.26-.15.94.94,0,0,1-.14-.19,1.67,1.67,0,0,1,1-2L244.49,233a1.14,1.14,0,0,1,1.67.65v0A1.77,1.77,0,0,1,245.29,235.6Z"/><path class="cls-8" d="M328.16,188.1,288,210.64a1,1,0,0,1-1.25-.14.75.75,0,0,1-.15-.2,1.68,1.68,0,0,1,1-2l39.79-22.73a1.13,1.13,0,0,1,1.67.65v0A1.79,1.79,0,0,1,328.16,188.1Z"/><polygon class="cls-9" points="468.6 95.36 339.6 169.36 191.6 83.36 318.6 7.36 468.6 95.36"/><polygon class="cls-7" points="320.6 328.36 172.6 243.36 191.6 83.36 339.6 169.36 320.6 328.36"/><polygon class="cls-9" points="320.6 392.36 172.6 307.26 172.6 242.26 320.6 327.26 320.6 392.36"/><polygon class="cls-10" points="468.6 306.36 320.6 392.36 320.6 327.36 339.6 169.36 468.6 95.36 468.6 306.36"/><polygon class="cls-7" points="288.6 395.04 161.6 322.02 161.6 266.24 288.6 339.18 288.6 395.04"/><polygon class="cls-8" points="288.6 339.36 161.6 266.36 180.6 254.36 307.6 326.36 288.6 339.36"/><polygon class="cls-7" points="306.6 383.36 288.6 395.36 288.6 339.36 307.6 326.36 306.6 383.36"/><polygon class="cls-11" points="324.24 292.66 176.24 207.66 188.24 113.66 336.24 199.66 324.24 292.66"/><polygon class="cls-12" points="338.6 285.36 323.5 294.03 335.5 200.03 350.6 191.36 338.6 285.36"/><polygon class="cls-12" points="419.6 240.36 354.6 277.36 365.95 186.37 420.6 154.36 419.6 240.36"/><polygon class="cls-12" points="456.6 219.78 433.6 234.36 433.6 148.36 456.6 134.36 456.6 219.78"/><polygon class="cls-6" points="477.6 89.36 468.6 95.36 318.01 7.25 328.6 0.36 477.6 89.36"/><polygon class="cls-3" points="478.6 247.36 468.6 241.36 468.6 95.36 477.6 89.36 478.6 247.36"/><path class="cls-1" d="M395.6,413.36c-17,9-30.91-7.76-29-25,2-18,12.1-29.26,27-39C394.36,348.86,396,413.16,395.6,413.36Z"/><path class="cls-1" d="M522.89,275.34c17-9,30.91,7.76,29,25-2,18-13.39,29.28-28.29,39C522.84,339.85,522.51,275.54,522.89,275.34Z"/><path class="cls-2" d="M467.09,243.22c17-9,30.91,7.76,29,25-2,18-12.11,29.26-27,39C468.33,307.71,466.71,243.42,467.09,243.22Z"/><polygon class="cls-3" points="525.6 338.36 395.6 413.36 335.6 381.36 495.6 291.36 525.6 338.36"/><polygon class="cls-2" points="493.32 321.55 508.12 334.67 539.12 285.74 504.6 265.36 470.6 294.36 493.32 321.55"/><path class="cls-4" d="M493.33,328c-2.8-48.89,45.54-70.68,55.27-31.92"/><ellipse class="cls-5" cx="522.43" cy="309.09" rx="29.58" ry="20.15" transform="translate(39.73 677.16) rotate(-67.94)"/><ellipse class="cls-2" cx="524.63" cy="309.16" rx="17.05" ry="11.4" transform="translate(41.04 679.24) rotate(-67.94)"/><ellipse class="cls-1" cx="523.87" cy="309.09" rx="9.21" ry="5.52" transform="matrix(0.38, -0.93, 0.93, 0.38, 40.63, 678.49)"/><path class="cls-2" d="M464.6,308.36c-6.77-3.15-12.06-8.14-13-11C447,283.17,436,269.91,464,252.19c18.33,10.34,38.32,19.83,56.65,30.17-11.27,3.88-25,23-17,48"/><polygon class="cls-2" points="367.75 393.37 382.54 406.49 413.54 357.56 379.02 337.18 345.02 366.18 367.75 393.37"/><path class="cls-4" d="M367.74,399.84C365,351,413.29,329.17,423,367.93"/><ellipse class="cls-5" cx="396.85" cy="380.91" rx="29.58" ry="20.15" transform="translate(-105.23 605.61) rotate(-67.94)"/><ellipse class="cls-2" cx="399.05" cy="380.98" rx="17.05" ry="11.4" transform="translate(-103.92 607.7) rotate(-67.94)"/><ellipse class="cls-1" cx="398.29" cy="380.91" rx="9.21" ry="5.52" transform="translate(-104.34 606.94) rotate(-67.94)"/><path class="cls-2" d="M339,380.18c-6.77-3.16-12.06-8.14-13-11C321.37,355,310.44,341.73,338.37,324c18.33,10.33,38.32,19.83,56.65,30.17-11.27,3.88-25,23-17,48"/><path class="cls-6" d="M321.6,383.36c-6.77-3.15-9.06-10.14-10-13-4.65-14.19-1.93-34.29,26-52,18.34,10.33,37.6,20.95,55.93,31.28-20.93,13.72-30.21,33.83-25.93,48.72.73,2.51,2,11,12,16"/><path class="cls-6" d="M540.34,274.53a22.7,22.7,0,0,0-16.74.83c-18.66-10.67-38.33-21.34-57-32a20.56,20.56,0,0,1,8-3,15.38,15.38,0,0,1,10,2Z"/><polygon class="cls-6" points="523.6 275.36 393.53 349.64 337.6 318.36 466.6 243.36 523.6 275.36"/><path class="cls-7" d="M524.87,313.36,400,384.44a3.24,3.24,0,0,1-3.91-.46,3.18,3.18,0,0,1-.45-.62c-.94-1.79.1-4.8,3.07-6.44l123.72-71.67a3.53,3.53,0,0,1,5.19,2l0,.07A5.6,5.6,0,0,1,524.87,313.36Z"/><path class="cls-8" d="M440.68,359.08l-40.17,22.55a1.05,1.05,0,0,1-1.26-.15.75.75,0,0,1-.15-.2,1.68,1.68,0,0,1,1-2q19.91-11.36,39.79-22.73a1.15,1.15,0,0,1,1.67.65v0A1.76,1.76,0,0,1,440.68,359.08Z"/><path class="cls-8" d="M523.54,311.59l-40.17,22.54a1,1,0,0,1-1.25-.14,1,1,0,0,1-.15-.2,1.67,1.67,0,0,1,1-2q19.89-11.37,39.79-22.73a1.14,1.14,0,0,1,1.67.64v0A1.76,1.76,0,0,1,523.54,311.59Z"/><ellipse class="cls-3" cx="329.02" cy="79.86" rx="20.42" ry="17.5"/><ellipse class="cls-13" cx="328.48" cy="76.41" rx="16.12" ry="13.82"/><polygon class="cls-13" points="343.6 53.36 344.6 77.36 312.6 78.36 313.6 53.36 343.6 53.36"/><ellipse class="cls-14" cx="328.46" cy="52.63" rx="15.14" ry="12.98"/><polygon class="cls-15" points="312.73 82.5 211.59 18.5 435.59 18.5 342.44 82.5 312.73 82.5"/><polygon class="cls-16" points="253.59 252.5 240.59 244.5 217.59 130.5 231.59 138.5 253.59 252.5"/><polygon class="cls-1" points="284.59 400.87 136.59 315.77 157.59 250.77 305.59 335.77 284.59 400.87"/><polygon class="cls-3" points="164.59 426.18 16.59 340.18 136.59 315.18 284.59 401.18 164.59 426.18"/><polygon class="cls-6" points="157.59 440.42 157.59 427.42 284.59 401.18 281.59 412.5 157.59 440.42"/><polygon class="cls-17" points="287.59 335.5 259.59 375.5 164.59 426.5 157.59 423.5 254.59 371.5 283.59 331.5 299.85 332.94 304.59 334.5 287.59 335.5"/><polygon class="cls-17" points="17.59 340.18 165.59 426.18 157.59 428.5 8.59 342.18 17.59 340.18"/><polygon class="cls-6" points="-0.41 353.18 38.59 359.18 38.59 371.83 -0.41 366.38 -0.41 353.18"/><polygon class="cls-17" points="-0.41 353.5 8.59 342.18 38.59 359.18 -0.41 353.5"/><polygon class="cls-6" points="29.59 370.78 68.59 376.78 68.59 389.42 29.59 383.98 29.59 370.78"/><polygon class="cls-17" points="29.59 371.1 38.59 359.78 68.59 376.78 29.59 371.1"/><polygon class="cls-6" points="59.59 387.78 98.59 393.78 98.59 406.42 59.59 400.98 59.59 387.78"/><polygon class="cls-17" points="59.59 388.1 68.59 376.78 98.59 393.78 59.59 388.1"/><polygon class="cls-6" points="88.59 404.78 127.59 410.78 127.59 423.42 88.59 417.98 88.59 404.78"/><polygon class="cls-17" points="88.59 405.1 97.59 393.78 127.59 410.78 88.59 405.1"/><polygon class="cls-6" points="118.59 421.78 157.59 428.5 157.59 440.42 118.59 434.98 118.59 421.78"/><polygon class="cls-17" points="118.59 422.1 127.59 410.78 157.59 428.5 118.59 422.1"/><polygon class="cls-6" points="284.79 400.84 160.59 428.5 259.61 374.79 286.59 336.5 305.59 335.5 284.79 400.84"/><polygon class="cls-17" points="305.59 336.18 286.59 336.5 288.77 330.7 307.59 330.18 305.59 336.18"/><polygon class="cls-17" points="146.59 251.5 114.19 291.17 19.19 342.17 8.59 342.5 109.19 287.17 141.59 245.5 154.45 248.61 159.19 250.17 146.59 251.5"/><polygon class="cls-6" points="139.4 316.51 20.59 341.5 114.22 290.46 143.59 253.5 160.19 251.17 139.4 316.51"/><polygon class="cls-17" points="286.59 337.18 138.59 251.18 140.77 244.7 288.77 330.7 286.59 337.18"/><polygon class="cls-3" points="288.77 330.7 140.77 244.7 159.77 243.7 307.59 330.18 288.77 330.7"/></g></svg>